<svg width="70" height="10" viewBox="0 0 70 10" fill="none" xmlns="http://www.w3.org/2000/svg">
<path d="M3.65057 7.48132C3.06099 7.48132 2.53321 7.34343 2.06725 7.06766C1.60446 6.79188 1.23993 6.38932 0.973665 5.85996C0.707401 5.32743 0.574269 4.67762 0.574269 3.91053C0.574269 3.18464 0.704231 2.55543 0.964156 2.0229C1.22408 1.48721 1.58702 1.07355 2.05299 0.781923C2.51895 0.48713 3.0594 0.339734 3.67434 0.339734C4.12763 0.339734 4.54446 0.428488 4.92483 0.605998C5.30838 0.783507 5.61744 1.0466 5.852 1.39528C6.08974 1.74079 6.21653 2.16871 6.23238 2.67905H5.32423C5.30521 2.33988 5.21646 2.05936 5.05797 1.83747C4.90265 1.61241 4.70136 1.44441 4.45412 1.33347C4.20687 1.21936 3.93427 1.1623 3.63631 1.1623C3.2274 1.1623 2.8597 1.27166 2.53321 1.49038C2.20989 1.70592 1.95472 2.01815 1.7677 2.42705C1.58068 2.83596 1.48717 3.32887 1.48717 3.90577C1.48717 4.56192 1.58544 5.09287 1.78197 5.4986C1.9785 5.90117 2.24159 6.19596 2.57125 6.38298C2.90091 6.56683 3.26544 6.65875 3.66483 6.65875C4.02936 6.65875 4.3305 6.59377 4.56823 6.46381C4.80914 6.33068 4.99299 6.15634 5.11978 5.94079C5.24657 5.72524 5.31789 5.49226 5.33374 5.24185H6.23238C6.20385 5.70147 6.08182 6.09928 5.86627 6.43528C5.65389 6.77128 5.36068 7.02962 4.98665 7.2103C4.61261 7.39098 4.16725 7.48132 3.65057 7.48132ZM9.24071 7.45279C8.78425 7.45279 8.38327 7.34977 8.03776 7.14373C7.69542 6.9377 7.42757 6.63498 7.23422 6.23558C7.04403 5.83302 6.94893 5.34011 6.94893 4.75687C6.94893 4.20532 7.05037 3.72985 7.25323 3.33045C7.4561 2.93105 7.73188 2.62517 8.08056 2.41279C8.4324 2.19724 8.82546 2.08947 9.25973 2.08947C9.73203 2.08947 10.1393 2.19724 10.4817 2.41279C10.8272 2.62517 11.0935 2.93105 11.2805 3.33045C11.4675 3.72985 11.561 4.20532 11.561 4.75687C11.561 5.34011 11.4564 5.83302 11.2472 6.23558C11.0412 6.63498 10.7622 6.9377 10.4104 7.14373C10.0585 7.34977 9.66863 7.45279 9.24071 7.45279ZM9.25973 6.67302C9.68448 6.67302 10.0236 6.51453 10.2772 6.19755C10.5308 5.88056 10.6576 5.40034 10.6576 4.75687C10.6576 4.14192 10.5324 3.67438 10.282 3.35422C10.0347 3.0309 9.68765 2.86924 9.24071 2.86924C8.81912 2.86924 8.48154 3.0309 8.22795 3.35422C7.97754 3.67438 7.85233 4.14192 7.85233 4.75687C7.85233 5.37815 7.97912 5.85362 8.23271 6.18328C8.48946 6.50977 8.8318 6.67302 9.25973 6.67302ZM12.7615 7.38147V2.18932H13.5127L13.6078 4.14826L13.5223 3.75362C13.5635 3.44615 13.649 3.16721 13.779 2.91679C13.9121 2.66321 14.0976 2.46192 14.3353 2.31294C14.5762 2.16079 14.8789 2.08471 15.2435 2.08471C15.7253 2.08471 16.0993 2.2337 16.3656 2.53166C16.635 2.82645 16.7697 3.26705 16.7697 3.85347V7.38147H15.8853V4.14351C15.8853 3.84871 15.8521 3.61098 15.7855 3.4303C15.7221 3.24962 15.6191 3.11807 15.4764 3.03566C15.337 2.95324 15.15 2.91204 14.9154 2.91204C14.6333 2.91204 14.3844 2.9897 14.1689 3.14502C13.9565 3.30034 13.7822 3.5143 13.6459 3.7869V7.38147H12.7615ZM19.6461 7.45279C19.2435 7.45279 18.9361 7.34977 18.7237 7.14373C18.5145 6.93453 18.4099 6.63815 18.4099 6.2546V3.43981C18.4099 3.33838 18.4305 3.24487 18.4717 3.15928C18.5129 3.07053 18.5731 3.01347 18.6524 2.98811L18.4099 2.39853V2.23687L18.6238 0.686828H19.2847V6.10721C19.2847 6.31007 19.3323 6.44796 19.4274 6.52087C19.5225 6.5906 19.6857 6.62547 19.9171 6.62547C20.0851 6.62547 20.2278 6.62547 20.3451 6.62547C20.4623 6.6223 20.5844 6.61596 20.7112 6.60645V7.38622C20.5368 7.41792 20.3561 7.43694 20.1691 7.44328C19.9853 7.44962 19.8109 7.45279 19.6461 7.45279ZM17.6539 2.98811V2.18932H20.6684V2.98811H17.6539ZM23.6777 7.45279C23.2054 7.45279 22.7901 7.34977 22.4319 7.14373C22.0769 6.9377 21.8011 6.63498 21.6046 6.23558C21.4081 5.83302 21.3098 5.3417 21.3098 4.76162C21.3098 4.20373 21.4112 3.72509 21.6141 3.3257C21.817 2.9263 22.0959 2.62041 22.4509 2.40804C22.806 2.19566 23.2101 2.08947 23.6634 2.08947C24.1135 2.08947 24.4986 2.18615 24.8188 2.37951C25.1421 2.57287 25.3909 2.85022 25.5653 3.21158C25.7396 3.56977 25.8252 3.99928 25.822 4.50011C25.822 4.60155 25.8189 4.68555 25.8125 4.75211C25.8062 4.81868 25.8014 4.88841 25.7983 4.96132H22.1942C22.2164 5.53188 22.359 5.96456 22.6221 6.25936C22.8884 6.55098 23.2275 6.69679 23.6396 6.69679C23.9883 6.69679 24.2577 6.62388 24.4479 6.47807C24.6413 6.32909 24.7633 6.1389 24.814 5.90751H25.6794C25.6572 6.23717 25.5558 6.5177 25.3751 6.74909C25.1976 6.98049 24.963 7.15641 24.6714 7.27687C24.3798 7.39415 24.0485 7.45279 23.6777 7.45279ZM22.6649 4.29566H24.9329C24.9266 3.85188 24.8172 3.50321 24.6048 3.24962C24.3925 2.99604 24.0675 2.86924 23.6301 2.86924C23.1705 2.86924 22.8218 3.02615 22.5841 3.33996C22.3463 3.6506 22.2164 4.08011 22.1942 4.62849C22.2195 4.49853 22.2703 4.41136 22.3463 4.36698C22.4256 4.31943 22.5318 4.29566 22.6649 4.29566ZM26.9792 7.38147V2.18932H27.7305L27.8256 4.14826L27.74 3.75362C27.7812 3.44615 27.8668 3.16721 27.9967 2.91679C28.1299 2.66321 28.3153 2.46192 28.553 2.31294C28.7939 2.16079 29.0967 2.08471 29.4612 2.08471C29.943 2.08471 30.317 2.2337 30.5833 2.53166C30.8527 2.82645 30.9874 3.26705 30.9874 3.85347V7.38147H30.1031V4.14351C30.1031 3.84871 30.0698 3.61098 30.0032 3.4303C29.9398 3.24962 29.8368 3.11807 29.6942 3.03566C29.5547 2.95324 29.3677 2.91204 29.1331 2.91204C28.851 2.91204 28.6022 2.9897 28.3866 3.14502C28.1742 3.30034 27.9999 3.5143 27.8636 3.7869V7.38147H26.9792ZM33.8638 7.45279C33.4613 7.45279 33.1538 7.34977 32.9414 7.14373C32.7322 6.93453 32.6276 6.63815 32.6276 6.2546V3.43981C32.6276 3.33838 32.6482 3.24487 32.6894 3.15928C32.7306 3.07053 32.7908 3.01347 32.8701 2.98811L32.6276 2.39853V2.23687L32.8416 0.686828H33.5025V6.10721C33.5025 6.31007 33.55 6.44796 33.6451 6.52087C33.7402 6.5906 33.9034 6.62547 34.1348 6.62547C34.3028 6.62547 34.4455 6.62547 34.5628 6.62547C34.6801 6.6223 34.8021 6.61596 34.9289 6.60645V7.38622C34.7545 7.41792 34.5739 7.43694 34.3868 7.44328C34.203 7.44962 34.0287 7.45279 33.8638 7.45279ZM31.8716 2.98811V2.18932H34.8861V2.98811H31.8716ZM37.7616 7.38147V0.468111H41.7223V1.30019H38.2751L38.646 0.872262V3.73936L38.2941 3.4826H41.4275V4.29566H38.5081L38.646 4.04366V7.38147H37.7616ZM43.8178 7.43853C43.4881 7.43853 43.2028 7.37672 42.9619 7.25309C42.7242 7.1263 42.5403 6.95513 42.4104 6.73958C42.2836 6.52404 42.2202 6.27996 42.2202 6.00736C42.2202 5.72524 42.2756 5.48751 42.3866 5.29415C42.4975 5.09762 42.6576 4.93755 42.8668 4.81392C43.076 4.68713 43.3296 4.59204 43.6276 4.52864C43.8241 4.48426 44.0317 4.44939 44.2504 4.42404C44.4723 4.39868 44.6847 4.37807 44.8876 4.36222C45.0904 4.34638 45.2632 4.33528 45.4058 4.32894V4.0389C45.4058 3.62366 45.3187 3.3257 45.1443 3.14502C44.97 2.96117 44.699 2.86924 44.3313 2.86924C44.103 2.86924 43.9018 2.89936 43.7274 2.95958C43.5562 3.01981 43.4231 3.13234 43.328 3.29717C43.2329 3.45883 43.187 3.69656 43.1901 4.01038H42.3628C42.3248 3.58245 42.385 3.22743 42.5435 2.94532C42.702 2.66004 42.9397 2.44766 43.2567 2.30819C43.5737 2.16554 43.9493 2.09422 44.3836 2.09422C44.6308 2.09422 44.867 2.12434 45.092 2.18456C45.3171 2.24162 45.5168 2.33988 45.6911 2.47936C45.8654 2.61566 46.0033 2.80268 46.1048 3.04041C46.2062 3.27815 46.2569 3.57611 46.2569 3.9343V7.38147H45.3963L45.4058 6.2546C45.3266 6.61279 45.1475 6.89966 44.8685 7.11521C44.5928 7.33075 44.2425 7.43853 43.8178 7.43853ZM44.0222 6.73958C44.2536 6.73958 44.466 6.69679 44.6593 6.61121C44.8559 6.52562 45.0207 6.41626 45.1538 6.28313C45.287 6.15 45.371 6.0137 45.4058 5.87422V4.86622C45.222 4.8789 45.0175 4.90109 44.7925 4.93279C44.5674 4.96132 44.3693 4.99619 44.1981 5.03739C43.8558 5.11664 43.6006 5.22283 43.4326 5.35596C43.2678 5.48909 43.1854 5.68087 43.1854 5.93128C43.1854 6.08026 43.2171 6.21656 43.2805 6.34019C43.347 6.46064 43.4421 6.55732 43.5658 6.63022C43.6894 6.69996 43.8415 6.73641 44.0222 6.73958ZM49.7412 7.46705C49.2594 7.46705 48.8409 7.3577 48.4859 7.13898C48.1309 6.92026 47.8567 6.60962 47.6634 6.20705C47.47 5.80449 47.3733 5.3306 47.3733 4.78539C47.3733 4.21166 47.4716 3.72509 47.6681 3.3257C47.8678 2.9263 48.142 2.622 48.4907 2.41279C48.8425 2.20041 49.2435 2.09422 49.6936 2.09422C50.1247 2.09422 50.4908 2.17822 50.792 2.34622C51.0931 2.51105 51.3229 2.73136 51.4814 3.00713C51.643 3.2829 51.7286 3.58721 51.7381 3.92004H50.868C50.8617 3.79324 50.8347 3.66804 50.7872 3.54441C50.7397 3.42079 50.6683 3.30985 50.5732 3.21158C50.4781 3.11015 50.3561 3.02932 50.2071 2.96909C50.0613 2.9057 49.8854 2.874 49.6794 2.874C49.2007 2.87083 48.8473 3.03724 48.619 3.37324C48.3908 3.70924 48.2767 4.17045 48.2767 4.75687C48.2767 5.38449 48.4035 5.86313 48.6571 6.19279C48.9107 6.52245 49.291 6.68728 49.7982 6.68728C49.9947 6.68728 50.1707 6.6429 50.326 6.55415C50.4813 6.46539 50.6049 6.3497 50.6969 6.20705C50.792 6.06441 50.8427 5.91226 50.849 5.7506H51.7191C51.7096 6.07709 51.6177 6.3703 51.4434 6.63022C51.269 6.89015 51.0344 7.0946 50.7397 7.24358C50.4449 7.39256 50.112 7.46705 49.7412 7.46705ZM54.3964 7.45279C53.9938 7.45279 53.6864 7.34977 53.474 7.14373C53.2648 6.93453 53.1602 6.63815 53.1602 6.2546V3.43981C53.1602 3.33838 53.1808 3.24487 53.222 3.15928C53.2632 3.07053 53.3234 3.01347 53.4027 2.98811L53.1602 2.39853V2.23687L53.3741 0.686828H54.035V6.10721C54.035 6.31007 54.0826 6.44796 54.1777 6.52087C54.2728 6.5906 54.436 6.62547 54.6674 6.62547C54.8354 6.62547 54.9781 6.62547 55.0953 6.62547C55.2126 6.6223 55.3347 6.61596 55.4615 6.60645V7.38622C55.2871 7.41792 55.1064 7.43694 54.9194 7.44328C54.7356 7.44962 54.5612 7.45279 54.3964 7.45279ZM52.4042 2.98811V2.18932H55.4187V2.98811H52.4042ZM58.348 7.45279C57.8916 7.45279 57.4906 7.34977 57.1451 7.14373C56.8027 6.9377 56.5349 6.63498 56.3415 6.23558C56.1513 5.83302 56.0562 5.34011 56.0562 4.75687C56.0562 4.20532 56.1577 3.72985 56.3605 3.33045C56.5634 2.93105 56.8392 2.62517 57.1879 2.41279C57.5397 2.19724 57.9328 2.08947 58.367 2.08947C58.8393 2.08947 59.2467 2.19724 59.589 2.41279C59.9345 2.62517 60.2008 2.93105 60.3878 3.33045C60.5748 3.72985 60.6683 4.20532 60.6683 4.75687C60.6683 5.34011 60.5637 5.83302 60.3545 6.23558C60.1485 6.63498 59.8695 6.9377 59.5177 7.14373C59.1658 7.34977 58.7759 7.45279 58.348 7.45279ZM58.367 6.67302C58.7918 6.67302 59.131 6.51453 59.3845 6.19755C59.6381 5.88056 59.7649 5.40034 59.7649 4.75687C59.7649 4.14192 59.6397 3.67438 59.3893 3.35422C59.1421 3.0309 58.795 2.86924 58.348 2.86924C57.9264 2.86924 57.5888 3.0309 57.3353 3.35422C57.0848 3.67438 56.9596 4.14192 56.9596 4.75687C56.9596 5.37815 57.0864 5.85362 57.34 6.18328C57.5968 6.50977 57.9391 6.67302 58.367 6.67302ZM61.8688 7.38147V2.18932H62.6201L62.7151 4.1863L62.6105 3.91528C62.6327 3.71875 62.6755 3.5143 62.7389 3.30192C62.8055 3.08955 62.899 2.89143 63.0195 2.70758C63.1431 2.52056 63.3 2.37 63.4902 2.25588C63.6835 2.14177 63.9197 2.08471 64.1986 2.08471C64.2525 2.08471 64.3032 2.08788 64.3508 2.09422C64.4015 2.10056 64.4506 2.10849 64.4982 2.118V3.05468C64.4189 3.02932 64.3349 3.01347 64.2462 3.00713C64.1606 2.99762 64.0798 2.99287 64.0037 2.99287C63.8484 2.99287 63.6915 3.02298 63.533 3.08321C63.3745 3.14343 63.2271 3.24011 63.0908 3.37324C62.9545 3.50321 62.8419 3.67279 62.7532 3.882V7.38147H61.8688ZM65.3984 9.43075V8.58441H65.7836C66.0118 8.58441 66.1877 8.55588 66.3114 8.49883C66.4381 8.44494 66.5332 8.36728 66.5966 8.26585C66.66 8.16441 66.7107 8.04396 66.7488 7.90449C66.7963 7.73649 66.8391 7.61445 66.8772 7.53838C66.9152 7.46547 66.9643 7.41317 67.0246 7.38147H66.7393L64.999 2.19407H65.9833L66.6442 4.51913L67.229 6.48283H67.267L67.8329 4.51913L68.4938 2.19407H69.478L67.733 7.38147C67.6284 7.69528 67.5254 7.97739 67.424 8.22781C67.3225 8.48139 67.2037 8.69694 67.0674 8.87445C66.931 9.05513 66.7599 9.19302 66.5538 9.28811C66.351 9.38321 66.0942 9.43075 65.7836 9.43075H65.3984Z" fill="url(#paint0_linear_1_1140)"/>
<defs>
<linearGradient id="paint0_linear_1_1140" x1="29.8231" y1="3.88147" x2="25.9472" y2="-10.4198" gradientUnits="userSpaceOnUse">
<stop stop-color="#FF379A"/>
<stop offset="1" stop-color="#9100FF"/>
</linearGradient>
</defs>
</svg>
