<svg width="168" height="41" viewBox="0 0 168 41" fill="none" xmlns="http://www.w3.org/2000/svg">
<path d="M30.2481 0.77771H4.42391C1.98126 0.77771 0 2.76788 0 5.22151C0 7.67514 1.98126 9.66531 4.42391 9.66531H12.8782V36.1032C12.8782 38.5568 14.8595 40.547 17.3021 40.547C19.7447 40.547 21.726 38.5568 21.726 36.1032V9.66871H30.2447C32.6874 9.66871 34.6687 7.67855 34.6687 5.22492C34.6687 2.77129 32.6908 0.77771 30.2481 0.77771Z" fill="url(#paint0_linear_1_1135)"/>
<path d="M74.3346 34.7435L71.0336 26.5817V26.5477L61.9856 3.85839C61.9856 3.85839 61.9856 3.82431 61.9517 3.82431C61.8872 3.62666 61.7855 3.45967 61.6532 3.29269C61.6192 3.22794 61.5887 3.12571 61.5208 3.02688C61.4225 2.89397 61.3241 2.76107 61.2223 2.66224C61.1578 2.56342 61.0561 2.46459 60.9577 2.36235C60.8593 2.26353 60.7609 2.19537 60.6591 2.09654C60.5608 1.99772 60.4284 1.89889 60.3301 1.83073C60.1638 1.73191 59.967 1.599 59.7703 1.53085C59.7058 1.49677 59.638 1.4661 59.5735 1.43202C59.4412 1.36727 59.275 1.33319 59.1427 1.29911C59.0103 1.26504 58.878 1.20029 58.7457 1.16621C58.6134 1.13213 58.549 1.13213 58.4472 1.13213C58.2504 1.09805 58.0502 1.06738 57.8874 1.06738H52.9343C52.8868 1.06738 52.8393 1.07079 52.7918 1.0742C51.0344 1.12872 49.4806 2.209 48.8055 3.85498L39.7914 26.5783L36.5549 34.7401C35.6288 37.0301 36.7517 39.6167 39.0315 40.5436C39.5608 40.7753 40.1205 40.8741 40.6837 40.8741C42.4987 40.8741 44.117 39.7802 44.8124 38.0559L46.8921 32.7806L50.4577 23.8589L55.4448 11.3522L55.5058 11.5055L60.4318 23.8589L63.9974 32.7806L66.0771 38.0559C66.7386 39.7461 68.3874 40.8435 70.2058 40.8435C70.7656 40.8435 71.3288 40.7446 71.858 40.5129C74.1378 39.6166 75.2607 37.0301 74.3346 34.7401V34.7435Z" fill="url(#paint1_linear_1_1135)"/>
<path d="M148.734 11.359H148.768L153.755 23.8657L157.32 32.7874L159.434 38.0627C160.095 39.753 161.744 40.881 163.563 40.881C164.122 40.881 164.685 40.7821 165.215 40.5504C167.495 39.6201 168.584 37.0335 167.691 34.7469L164.322 26.5852V26.5511L155.274 3.86181V3.82773C155.207 3.63007 155.108 3.46309 155.01 3.29611C154.976 3.23136 154.911 3.12912 154.878 3.0303C154.779 2.89739 154.681 2.76449 154.582 2.66566C154.518 2.56683 154.416 2.46801 154.318 2.36577C154.219 2.26695 154.118 2.19879 153.989 2.09996C153.89 2.00114 153.758 1.90231 153.66 1.83415C153.493 1.73533 153.297 1.60242 153.096 1.53426C153.032 1.50019 152.964 1.46952 152.9 1.43544C152.767 1.37069 152.601 1.33661 152.469 1.30253C152.337 1.26845 152.204 1.20371 152.072 1.16963C151.94 1.13555 151.875 1.13555 151.777 1.13555C151.577 1.10147 151.38 1.0708 151.183 1.0708H146.264C145.083 1.0708 143.987 1.53426 143.177 2.32147C142.739 2.74745 142.379 3.26203 142.138 3.85499L133.09 26.5783L129.854 34.7401C128.931 37.0301 130.054 39.6167 132.331 40.5436C132.86 40.7753 133.42 40.8741 133.983 40.8741C135.798 40.8741 137.416 39.7802 138.111 38.0559L140.225 32.7806L148.31 12.4495L148.747 11.3522" fill="url(#paint2_linear_1_1135)"/>
<path d="M106.628 8.47254C106.693 8.60544 106.761 8.77243 106.825 8.936L105.801 5.95075C105.709 5.6679 105.597 5.40209 105.465 5.14651C104.542 3.3574 102.679 2.24645 100.715 2.30438C100.186 2.30438 99.6601 2.40321 99.1309 2.57019C97.5465 3.10181 96.2913 4.36271 95.762 5.95416L89.1567 25.8252L82.2562 4.2298C81.5302 1.875 79.0536 0.549355 76.7094 1.27863C74.3651 2.0079 73.0454 4.49561 73.7714 6.85042C73.7714 6.88449 73.8053 6.91516 73.8053 6.91516L77.9341 19.9194L82.1951 33.2883C82.2596 33.4553 82.2935 33.6188 82.3614 33.7858L83.2876 36.6723C84.3426 39.9233 87.7793 41.6818 91.0158 40.6185C92.8648 40.0221 94.3168 38.5602 94.9444 36.737L100.824 19.0913L100.919 19.3742L106.669 36.7404C107.724 39.9574 111.195 41.6818 114.397 40.6219C116.314 39.9915 117.8 38.4341 118.36 36.4746L126.614 6.81975L119.483 32.3273L126.614 6.78567C126.682 6.48578 126.746 6.1893 126.78 5.92349C126.947 3.86857 125.623 1.875 123.544 1.27863H123.51C123.113 1.1798 122.716 1.11165 122.319 1.11165C120.429 1.11165 118.774 2.27712 118.139 4.00829C118.099 4.12416 118.058 4.24003 118.027 4.36271L112.216 25.2595L106.635 8.47595" fill="url(#paint3_linear_1_1135)"/>
<defs>
<linearGradient id="paint0_linear_1_1135" x1="14.705" y1="20.6623" x2="-5.97102" y2="8.31146" gradientUnits="userSpaceOnUse">
<stop stop-color="#FF379A"/>
<stop offset="1" stop-color="#9100FF"/>
</linearGradient>
<linearGradient id="paint1_linear_1_1135" x1="52.5301" y1="20.9708" x2="30.8991" y2="6.66106" gradientUnits="userSpaceOnUse">
<stop stop-color="#FF379A"/>
<stop offset="1" stop-color="#9100FF"/>
</linearGradient>
<linearGradient id="paint2_linear_1_1135" x1="145.849" y1="20.9759" x2="124.207" y2="6.64502" gradientUnits="userSpaceOnUse">
<stop stop-color="#FF379A"/>
<stop offset="1" stop-color="#9100FF"/>
</linearGradient>
<linearGradient id="paint3_linear_1_1135" x1="96.1467" y1="21.0062" x2="72.7063" y2="-0.442925" gradientUnits="userSpaceOnUse">
<stop stop-color="#FF379A"/>
<stop offset="1" stop-color="#9100FF"/>
</linearGradient>
</defs>
</svg>
